<?xml version="1.0" standalone="no"?>
<!DOCTYPE svg PUBLIC "-//W3C//DTD SVG 20010904//EN"
 "http://www.w3.org/TR/2001/REC-SVG-20010904/DTD/svg10.dtd">
<svg version="1.0" xmlns="http://www.w3.org/2000/svg"
 width="300.000000pt" height="290.000000pt" viewBox="0 0 300.000000 290.000000"
 preserveAspectRatio="xMidYMid meet">
<metadata>
Created by potrace 1.10, written by Peter Selinger 2001-2011
</metadata>
<g transform="translate(0.000000,290.000000) scale(0.100000,-0.100000)"
fill="#082c74" stroke="none">
<path d="M0 1450 l0 -1450 1500 0 1500 0 0 1450 0 1450 -1500 0 -1500 0 0
-1450z m1620 820 c233 -29 368 -116 455 -294 24 -49 42 -93 39 -98 -3 -4 -15
-8 -28 -8 -21 0 -271 -44 -323 -57 -18 -4 -25 2 -38 34 -20 48 -59 89 -110
116 -35 19 -56 22 -175 22 -120 0 -139 -2 -177 -22 -48 -26 -73 -57 -73 -91 0
-28 17 -62 39 -79 24 -19 182 -68 327 -103 461 -109 604 -221 606 -475 1 -142
-43 -245 -147 -345 -78 -74 -174 -122 -305 -151 -82 -18 -117 -20 -260 -16
-182 6 -267 23 -374 76 -83 41 -171 115 -217 181 -37 53 -97 186 -88 195 4 3
376 65 393 65 2 0 7 -15 10 -34 8 -44 52 -109 96 -141 111 -82 363 -77 454 8
62 59 56 156 -11 190 -15 8 -112 35 -214 60 -430 106 -562 173 -635 323 -54
110 -53 268 2 378 28 57 109 145 166 182 119 76 363 111 588 84z"/>
<path d="M1268 2230 c-149 -27 -237 -69 -313 -152 -74 -80 -97 -144 -96 -271
0 -84 4 -106 26 -155 68 -148 199 -216 605 -313 257 -61 300 -88 300 -189 0
-83 -35 -131 -125 -171 -42 -19 -68 -23 -160 -23 -64 -1 -129 5 -156 12 -71
21 -138 77 -173 147 -17 33 -32 62 -33 64 -3 5 -325 -48 -332 -55 -3 -3 12
-39 33 -80 75 -146 216 -249 401 -291 118 -27 390 -24 496 5 164 44 278 128
345 254 l39 73 0 120 c0 107 -3 125 -24 169 -31 63 -84 114 -159 154 -59 32
-253 101 -305 109 -58 9 -295 72 -352 94 -170 64 -164 224 12 275 82 24 273
16 328 -13 39 -20 108 -88 130 -127 10 -18 17 -17 163 10 174 32 168 25 115
120 -59 107 -168 186 -305 220 -73 18 -386 28 -460 14z"/>
</g>
</svg>
